<svg xmlns="http://www.w3.org/2000/svg" viewBox="0 0 256 256" role="img" aria-labelledby="title desc">
  <title id="title">쿠쿠열차 팬더 얼굴</title>
  <desc id="desc">검은 귀와 머리숱, 커다란 갈색 눈과 미소를 가진 팬더 마스코트 얼굴</desc>
  <defs>
    <linearGradient id="bg" x1="0%" y1="0%" x2="100%" y2="100%">
      <stop offset="0%" stop-color="#fff6bf" />
      <stop offset="100%" stop-color="#ffd7e8" />
    </linearGradient>
    <radialGradient id="fur" cx="50%" cy="35%" r="70%">
      <stop offset="0%" stop-color="#fffdf8" />
      <stop offset="100%" stop-color="#f7eddc" />
    </radialGradient>
    <radialGradient id="eye" cx="40%" cy="35%" r="65%">
      <stop offset="0%" stop-color="#7b4b26" />
      <stop offset="100%" stop-color="#27160f" />
    </radialGradient>
  </defs>
  <rect width="256" height="256" rx="64" fill="url(#bg)" />
  <circle cx="62" cy="68" r="30" fill="#1d1b1f" />
  <circle cx="194" cy="68" r="30" fill="#1d1b1f" />
  <path d="M104 42c14-14 34-18 51-10 13 6 22 18 26 32-14-9-28-14-42-14-14 0-24 2-35 8Z" fill="#1d1b1f" />
  <ellipse cx="128" cy="142" rx="90" ry="86" fill="url(#fur)" />
  <path d="M75 141c0-24 14-43 35-52-4 16-4 31 2 48 7 18 6 35-3 53-22-3-34-21-34-49Z" fill="#1d1b1f" />
  <path d="M181 141c0-24-14-43-35-52 4 16 4 31-2 48-7 18-6 35 3 53 22-3 34-21 34-49Z" fill="#1d1b1f" />
  <ellipse cx="108" cy="135" rx="17" ry="22" fill="url(#eye)" />
  <ellipse cx="148" cy="135" rx="17" ry="22" fill="url(#eye)" />
  <circle cx="114" cy="129" r="4.5" fill="#fff" />
  <circle cx="154" cy="129" r="4.5" fill="#fff" />
  <path d="M92 104c10-11 22-17 33-17 5 0 8 1 12 4-17 3-29 10-45 25Z" fill="#1d1b1f" />
  <path d="M164 104c-10-11-22-17-33-17-5 0-8 1-12 4 17 3 29 10 45 25Z" fill="#1d1b1f" />
  <path d="M108 158c0-12 8-19 20-19s20 7 20 19c0 11-8 21-20 21s-20-10-20-21Z" fill="#1e1b1f" />
  <path d="M104 178c10 10 20 14 24 14s14-4 24-14" fill="none" stroke="#351d19" stroke-linecap="round" stroke-width="6" />
  <path d="M119 183c3 5 6 7 9 7s6-2 9-7c-1 10-7 15-18 15s-17-5-18-15Z" fill="#ff9aa8" opacity=".85" />
  <path d="M82 172c10 9 20 13 32 14" fill="none" stroke="#1e1b1f" stroke-linecap="round" stroke-width="6" />
  <path d="M174 172c-10 9-20 13-32 14" fill="none" stroke="#1e1b1f" stroke-linecap="round" stroke-width="6" />
  <circle cx="82" cy="169" r="6" fill="#1e1b1f" />
  <circle cx="174" cy="169" r="6" fill="#1e1b1f" />
</svg>
