<svg xmlns="http://www.w3.org/2000/svg" viewBox="0 0 1200 630" role="img" aria-labelledby="title desc">
  <title id="title">쿠쿠 공유 이미지</title>
  <desc id="desc">쿠쿠 판다와 함께 마음에 드는 테스트를 골라보는 사이트 소개 이미지</desc>
  <defs>
    <linearGradient id="bg" x1="0%" y1="0%" x2="100%" y2="100%">
      <stop offset="0%" stop-color="#fff7c6" />
      <stop offset="55%" stop-color="#ffe9f4" />
      <stop offset="100%" stop-color="#ffd8ea" />
    </linearGradient>
    <linearGradient id="rail" x1="0%" y1="0%" x2="100%" y2="0%">
      <stop offset="0%" stop-color="#ffcc5c" />
      <stop offset="100%" stop-color="#ff7fb6" />
    </linearGradient>
    <radialGradient id="fur" cx="50%" cy="35%" r="70%">
      <stop offset="0%" stop-color="#fffef9" />
      <stop offset="100%" stop-color="#f8efdd" />
    </radialGradient>
    <radialGradient id="eye" cx="40%" cy="35%" r="65%">
      <stop offset="0%" stop-color="#7b4b26" />
      <stop offset="100%" stop-color="#27160f" />
    </radialGradient>
    <filter id="shadow" x="-20%" y="-20%" width="140%" height="140%">
      <feDropShadow dx="0" dy="18" stdDeviation="22" flood-color="#9f5a82" flood-opacity=".18" />
    </filter>
  </defs>
  <rect width="1200" height="630" rx="36" fill="url(#bg)" />
  <g opacity=".4">
    <path d="M70 490h1060" stroke="url(#rail)" stroke-linecap="round" stroke-width="22" />
    <path d="M120 452v78M220 452v78M320 452v78M420 452v78M520 452v78M620 452v78M720 452v78M820 452v78M920 452v78M1020 452v78" stroke="#d7875f" stroke-linecap="round" stroke-width="10" />
  </g>
  <g filter="url(#shadow)">
    <rect x="72" y="78" width="1056" height="474" rx="38" fill="#fff9fd" fill-opacity=".86" />
  </g>
  <g transform="translate(122 128)" fill="#2e2430" font-family="'Noto Sans KR', 'Segoe UI', sans-serif">
    <text x="0" y="34" fill="#b54a8f" font-size="22" font-weight="800">TODAY&apos;S TEST PICK</text>
    <text x="0" y="118" font-size="72" font-weight="900">쿠쿠</text>
    <text x="0" y="200" font-size="50" font-weight="800">마음에 드는 테스트를</text>
    <text x="0" y="260" font-size="50" font-weight="800">골라보세요</text>
    <text x="0" y="334" fill="#6e6170" font-size="25" font-weight="600">연애 · 관계 · 라이프 테스트를 가볍게 누르고 바로 공유해보세요.</text>
    <g transform="translate(0 386)">
      <rect width="188" height="58" rx="29" fill="#fff5c2" stroke="#d9b55e" />
      <text x="94" y="38" fill="#6f5210" font-size="22" font-weight="800" text-anchor="middle">원핸드 진행형</text>
      <rect x="206" width="170" height="58" rx="29" fill="#fff" stroke="#d8cad8" />
      <text x="291" y="38" fill="#4c3d4b" font-size="22" font-weight="800" text-anchor="middle">공유 바로 가능</text>
    </g>
  </g>
  <g transform="translate(854 124)">
    <rect width="232" height="232" rx="34" fill="#ff8d34" />
    <rect x="20" y="20" width="192" height="192" rx="30" fill="#fff6d4" />
    <circle cx="64" cy="68" r="22" fill="#1f1c22" />
    <circle cx="168" cy="68" r="22" fill="#1f1c22" />
    <path d="M94 46c13-10 31-12 45-4 8 4 14 10 17 19-10-5-23-8-36-8-9 0-17 1-26 5Z" fill="#1f1c22" />
    <ellipse cx="116" cy="118" rx="74" ry="72" fill="url(#fur)" />
    <path d="M81 110c8-12 18-18 31-18 7 0 12 2 17 5-15 3-25 11-35 25-6 8-9 18-9 28-12-5-18-18-18-40Z" fill="#212024" />
    <path d="M151 110c-8-12-18-18-31-18-7 0-12 2-17 5 15 3 25 11 35 25 6 8 9 18 9 28 12-5 18-18 18-40Z" fill="#212024" />
    <ellipse cx="102" cy="114" rx="15" ry="19" fill="url(#eye)" />
    <ellipse cx="130" cy="114" rx="15" ry="19" fill="url(#eye)" />
    <circle cx="108" cy="109" r="4" fill="#fff" />
    <circle cx="136" cy="109" r="4" fill="#fff" />
    <path d="M98 139c0-10 8-15 18-15s18 5 18 15c0 4-2 7-5 10h-26c-3-3-5-6-5-10Z" fill="#1f1c22" />
    <path d="M95 153c6 6 13 9 21 9s15-3 21-9" fill="none" stroke="#35221a" stroke-linecap="round" stroke-width="5" />
    <path d="M106 153c3 4 6 6 10 6s7-2 10-6c-1 7-5 11-20 11s-19-4-20-11Z" fill="#ff9ca9" opacity=".9" />
  </g>
</svg>
