<svg xmlns="http://www.w3.org/2000/svg" viewBox="0 0 256 256" role="img" aria-labelledby="title desc">
  <title id="title">쿠쿠 판다 얼굴</title>
  <desc id="desc">동그란 얼굴과 큰 눈, 미소를 가진 쿠쿠 판다 마스코트 얼굴</desc>
  <defs>
    <linearGradient id="bg" x1="0%" y1="0%" x2="100%" y2="100%">
      <stop offset="0%" stop-color="#fff4b8" />
      <stop offset="100%" stop-color="#ffdbe9" />
    </linearGradient>
    <radialGradient id="fur" cx="50%" cy="38%" r="72%">
      <stop offset="0%" stop-color="#fffefb" />
      <stop offset="100%" stop-color="#f8efdf" />
    </radialGradient>
    <radialGradient id="eye" cx="40%" cy="35%" r="65%">
      <stop offset="0%" stop-color="#8f5a2d" />
      <stop offset="100%" stop-color="#2d1c14" />
    </radialGradient>
  </defs>
  <rect width="256" height="256" rx="64" fill="url(#bg)" />
  <circle cx="67" cy="73" r="28" fill="#1f1c22" />
  <circle cx="189" cy="73" r="28" fill="#1f1c22" />
  <path d="M101 45c14-13 37-17 57-8 11 5 20 14 25 27-14-7-31-12-49-12-13 0-24 2-34 7Z" fill="#1f1c22" />
  <ellipse cx="128" cy="145" rx="88" ry="84" fill="url(#fur)" />
  <path d="M84 134c9-13 21-20 36-20 7 0 13 2 19 5-17 3-30 12-42 30-7 10-11 22-11 34-15-6-23-23-23-49Z" fill="#212024" />
  <path d="M172 134c-9-13-21-20-36-20-7 0-13 2-19 5 17 3 30 12 42 30 7 10 11 22 11 34 15-6 23-23 23-49Z" fill="#212024" />
  <ellipse cx="111" cy="138" rx="18" ry="23" fill="url(#eye)" />
  <ellipse cx="145" cy="138" rx="18" ry="23" fill="url(#eye)" />
  <circle cx="118" cy="132" r="5" fill="#fff" />
  <circle cx="152" cy="132" r="5" fill="#fff" />
  <circle cx="113" cy="140" r="2.5" fill="#fff" opacity=".9" />
  <circle cx="147" cy="140" r="2.5" fill="#fff" opacity=".9" />
  <path d="M92 107c10-9 21-14 34-14 6 0 12 1 17 5-17 2-30 8-44 21Z" fill="#1f1c22" />
  <path d="M164 107c-10-9-21-14-34-14-6 0-12 1-17 5 17 2 30 8 44 21Z" fill="#1f1c22" />
  <path d="M110 164c0-11 8-18 18-18s18 7 18 18c0 4-2 8-5 12h-26c-3-4-5-8-5-12Z" fill="#1f1c22" />
  <path d="M101 180c7 7 16 11 27 11s20-4 27-11" fill="none" stroke="#35221a" stroke-linecap="round" stroke-width="6" />
  <path d="M116 180c3 5 7 8 12 8s9-3 12-8c-1 9-6 15-24 15s-23-6-24-15Z" fill="#ff9ca9" opacity=".9" />
  <circle cx="86" cy="177" r="4.5" fill="#ffcfda" />
  <circle cx="170" cy="177" r="4.5" fill="#ffcfda" />
</svg>
