<svg width="1400" height="860" viewBox="0 0 1400 860" fill="none" xmlns="http://www.w3.org/2000/svg">
  <defs>
    <linearGradient id="bg2" x1="0" y1="0" x2="1400" y2="860" gradientUnits="userSpaceOnUse">
      <stop stop-color="#FFF7FB"/>
      <stop offset="1" stop-color="#F4E8F2"/>
    </linearGradient>
    <linearGradient id="poster" x1="0" y1="0" x2="1" y2="1">
      <stop stop-color="#2E2334"/>
      <stop offset="1" stop-color="#4B3550"/>
    </linearGradient>
    <linearGradient id="blush" x1="0" y1="0" x2="1" y2="1">
      <stop stop-color="#FFE2B3"/>
      <stop offset="1" stop-color="#F5A0C1"/>
    </linearGradient>
    <filter id="shadow2" x="-20%" y="-20%" width="140%" height="140%">
      <feDropShadow dx="0" dy="20" stdDeviation="20" flood-color="#B6859A" flood-opacity="0.28"/>
    </filter>
  </defs>

  <rect width="1400" height="860" fill="url(#bg2)"/>
  <text x="84" y="78" fill="#3A2332" font-size="34" font-family="Arial, sans-serif" font-weight="700">AS-IS</text>
  <text x="752" y="78" fill="#3A2332" font-size="34" font-family="Arial, sans-serif" font-weight="700">TO-BE · Editorial Poster</text>

  <g filter="url(#shadow2)">
    <rect x="70" y="120" width="540" height="640" rx="14" fill="white" stroke="#D7C0CC" stroke-width="3"/>
    <rect x="70" y="120" width="540" height="74" rx="14" fill="#FFFDFE"/>
    <text x="108" y="166" fill="#3A2332" font-size="18" font-family="Arial, sans-serif" font-weight="700">🚂 내 연애 열차 운행 타입은?</text>
    <rect x="70" y="194" width="540" height="302" fill="#FFF0B4"/>
    <rect x="165" y="312" width="350" height="30" rx="15" fill="#FFFFFF" fill-opacity="0.88"/>
    <text x="286" y="332" fill="#D35C98" font-size="14" font-family="Arial, sans-serif" font-weight="700">연애 열차 테스트</text>
    <text x="151" y="408" fill="#2B2031" font-size="62" font-family="Arial, sans-serif" font-weight="800">내 감정 운행 타입은?</text>
    <rect x="70" y="496" width="540" height="264" fill="#FFFDF7"/>
    <text x="102" y="604" fill="#2B2031" font-size="34" font-family="Arial, sans-serif" font-weight="800">내 연애 열차 운행 타입은?</text>
  </g>

  <g filter="url(#shadow2)">
    <rect x="740" y="110" width="580" height="660" rx="14" fill="#FFFDFE" stroke="#E5C7D6" stroke-width="3"/>
    <rect x="768" y="138" width="524" height="606" rx="8" fill="url(#poster)"/>
    <rect x="792" y="162" width="476" height="558" rx="8" fill="url(#blush)"/>
    <rect x="824" y="194" width="412" height="494" rx="10" fill="#FFF8EF" fill-opacity="0.9"/>
    <text x="854" y="244" fill="#A85A82" font-size="18" font-family="Arial, sans-serif" font-weight="700">KUKU FEATURED TEST</text>
    <text x="852" y="334" fill="#281E2D" font-size="68" font-family="Arial, sans-serif" font-weight="800">감정 운행</text>
    <text x="854" y="406" fill="#281E2D" font-size="68" font-family="Arial, sans-serif" font-weight="800">타입은?</text>
    <rect x="854" y="450" width="260" height="56" rx="28" fill="#FFFFFF"/>
    <text x="918" y="486" fill="#D05B97" font-size="22" font-family="Arial, sans-serif" font-weight="700">12 Questions</text>
    <line x1="854" y1="536" x2="1198" y2="536" stroke="#D5BCC9" stroke-width="2"/>
    <text x="854" y="586" fill="#4E3A47" font-size="24" font-family="Arial, sans-serif">한 장의 포스터처럼 임팩트 있게 보이도록</text>
    <text x="854" y="622" fill="#4E3A47" font-size="24" font-family="Arial, sans-serif">정보를 줄이고 제목과 분위기에 집중한 카드</text>
    <circle cx="1182" cy="250" r="18" fill="#FFFFFF"/>
    <circle cx="1140" cy="642" r="16" fill="#FFFFFF"/>
    <circle cx="870" cy="646" r="16" fill="#FFFFFF"/>
  </g>
</svg>
