<svg width="1400" height="860" viewBox="0 0 1400 860" fill="none" xmlns="http://www.w3.org/2000/svg">
  <defs>
    <linearGradient id="bg" x1="0" y1="0" x2="1400" y2="860" gradientUnits="userSpaceOnUse">
      <stop stop-color="#FDF4F7"/>
      <stop offset="1" stop-color="#F8E6EF"/>
    </linearGradient>
    <linearGradient id="cardA" x1="0" y1="0" x2="0" y2="1">
      <stop stop-color="#FFF5B9"/>
      <stop offset="1" stop-color="#FFE8A0"/>
    </linearGradient>
    <linearGradient id="cardB" x1="0" y1="0" x2="1" y2="1">
      <stop stop-color="#F3F7FF"/>
      <stop offset="1" stop-color="#FCEFF8"/>
    </linearGradient>
    <filter id="shadow" x="-20%" y="-20%" width="140%" height="140%">
      <feDropShadow dx="0" dy="18" stdDeviation="18" flood-color="#C89EB2" flood-opacity="0.3"/>
    </filter>
  </defs>

  <rect width="1400" height="860" fill="url(#bg)"/>
  <text x="84" y="78" fill="#3A2332" font-size="34" font-family="Arial, sans-serif" font-weight="700">AS-IS</text>
  <text x="764" y="78" fill="#3A2332" font-size="34" font-family="Arial, sans-serif" font-weight="700">TO-BE · Soft Premium</text>

  <g filter="url(#shadow)">
    <rect x="70" y="120" width="540" height="640" rx="14" fill="white" stroke="#D7C0CC" stroke-width="3"/>
    <rect x="70" y="120" width="540" height="74" rx="14" fill="#FFFDFE"/>
    <text x="108" y="166" fill="#3A2332" font-size="18" font-family="Arial, sans-serif" font-weight="700">🚂 내 연애 열차 운행 타입은?</text>
    <rect x="70" y="194" width="540" height="302" fill="url(#cardA)"/>
    <circle cx="132" cy="248" r="22" fill="white" fill-opacity="0.9"/>
    <circle cx="225" cy="248" r="22" fill="white" fill-opacity="0.9"/>
    <circle cx="318" cy="248" r="22" fill="white" fill-opacity="0.9"/>
    <circle cx="411" cy="248" r="22" fill="white" fill-opacity="0.9"/>
    <rect x="160" y="310" width="360" height="28" rx="14" fill="white" fill-opacity="0.88"/>
    <text x="280" y="329" fill="#DA5FA5" font-size="14" font-family="Arial, sans-serif" font-weight="700">연애 열차 테스트</text>
    <text x="151" y="408" fill="#2B2031" font-size="62" font-family="Arial, sans-serif" font-weight="800">내 감정 운행 타입은?</text>
    <rect x="70" y="496" width="540" height="264" fill="#FFFDF7"/>
    <rect x="98" y="524" width="96" height="30" rx="15" fill="#F4EBF0"/>
    <rect x="496" y="524" width="78" height="30" rx="15" fill="#FCECF3"/>
    <text x="116" y="545" fill="#7D6A75" font-size="16" font-family="Arial, sans-serif" font-weight="700">연애 테스트</text>
    <text x="524" y="545" fill="#8A6C7A" font-size="16" font-family="Arial, sans-serif" font-weight="700">2분</text>
    <text x="102" y="604" fill="#2B2031" font-size="34" font-family="Arial, sans-serif" font-weight="800">내 연애 열차 운행 타입은?</text>
    <text x="102" y="654" fill="#6E6170" font-size="18" font-family="Arial, sans-serif">한 화면씩 답하면서 알아보는 원핸드형 연애 성향 테스트입니다.</text>
    <text x="102" y="684" fill="#6E6170" font-size="18" font-family="Arial, sans-serif">가볍게 해보고 결과를 친구와 비교하기 좋아요.</text>
  </g>

  <g filter="url(#shadow)">
    <rect x="750" y="120" width="560" height="640" rx="26" fill="#FFFDFE" stroke="#E7CAD8" stroke-width="3"/>
    <rect x="776" y="144" width="508" height="340" rx="28" fill="url(#cardB)"/>
    <rect x="804" y="174" width="122" height="36" rx="18" fill="#FFFFFF" fill-opacity="0.92"/>
    <text x="836" y="197" fill="#A4758D" font-size="16" font-family="Arial, sans-serif" font-weight="700">Love Test</text>
    <rect x="1052" y="174" width="184" height="40" rx="20" fill="#FFFFFF" fill-opacity="0.88"/>
    <text x="1086" y="200" fill="#4F3A48" font-size="18" font-family="Arial, sans-serif" font-weight="700">쿠쿠 추천</text>
    <circle cx="861" cy="250" r="24" fill="#FFFFFF"/>
    <circle cx="925" cy="250" r="24" fill="#FFFFFF"/>
    <circle cx="989" cy="250" r="24" fill="#FFFFFF"/>
    <circle cx="1053" cy="250" r="24" fill="#FFFFFF"/>
    <circle cx="1117" cy="250" r="24" fill="#FFFFFF"/>
    <rect x="834" y="294" width="392" height="54" rx="27" fill="#FFFFFF" fill-opacity="0.94"/>
    <text x="972" y="329" fill="#D55F9F" font-size="18" font-family="Arial, sans-serif" font-weight="700">원핸드 연애 성향</text>
    <text x="836" y="398" fill="#241B2B" font-size="58" font-family="Arial, sans-serif" font-weight="800">내 감정 운행 타입은?</text>
    <text x="840" y="438" fill="#6A5A66" font-size="22" font-family="Arial, sans-serif">지금 마음 리듬을 한 번에 읽어보는 쿠쿠 대표 테스트</text>

    <rect x="776" y="508" width="508" height="224" rx="22" fill="#FFFFFF"/>
    <text x="812" y="558" fill="#241B2B" font-size="34" font-family="Arial, sans-serif" font-weight="800">왜 더 고급스럽게 보일까?</text>
    <text x="812" y="604" fill="#6E6170" font-size="22" font-family="Arial, sans-serif">• 상단 배지, 제목, 설명의 위계가 더 분명함</text>
    <text x="812" y="642" fill="#6E6170" font-size="22" font-family="Arial, sans-serif">• 여백이 넉넉해서 썸네일이 답답하지 않음</text>
    <text x="812" y="680" fill="#6E6170" font-size="22" font-family="Arial, sans-serif">• 말랑한 감성은 유지하면서 카드가 “완성품”처럼 보임</text>
  </g>
</svg>
