<svg xmlns="http://www.w3.org/2000/svg" viewBox="0 0 128 128" role="img" aria-labelledby="title">
  <title id="title">배터리를 충전하는 쿠쿠</title>
  <rect x="5" y="5" width="118" height="118" rx="24" fill="#fffdf8" stroke="#28231f" stroke-width="6"/>
  <path d="m25 55 10-18 11 18m36 0 11-18 10 19" fill="#f3c85e" stroke="#28231f" stroke-width="4" stroke-linejoin="round"/>
  <path d="M27 58c3-16 15-25 34-25s31 10 34 28v30H26Z" fill="#f3c85e" stroke="#28231f" stroke-width="4"/>
  <ellipse cx="61" cy="73" rx="24" ry="18" fill="#fff5dc"/>
  <circle cx="51" cy="64" r="4" fill="#28231f"/><circle cx="72" cy="64" r="4" fill="#28231f"/>
  <path d="M57 73h9l-4.5 5Z" fill="#28231f"/><path d="M53 79q8 8 16 0" fill="none" stroke="#28231f" stroke-width="3" stroke-linecap="round"/>
  <rect x="77" y="50" width="30" height="55" rx="7" fill="#fffdf8" stroke="#28231f" stroke-width="4"/>
  <path d="M86 45h12v7H86z" fill="#28231f"/>
  <rect x="83" y="65" width="18" height="33" rx="3" fill="#c8d9a8"/>
  <path d="m94 57-8 18h8l-4 16 12-22h-8l5-12Z" fill="#df5b4f" stroke="#28231f" stroke-width="2" stroke-linejoin="round"/>
</svg>
